<mxfile host="app.diagrams.net" modified="2020-03-31T05:05:01.224Z" agent="5.0 (Windows NT 10.0; Win64; x64) AppleWebKit/537.36 (KHTML, like Gecko) Chrome/80.0.3987.149 Safari/537.36" etag="H-KOt35n7vrUSoXiyUF9" version="12.9.5" type="github">
  <diagram id="C5RBs43oDa-KdzZeNtuy" name="Page-1">
    <mxGraphModel dx="569" dy="2656" grid="1" gridSize="10" guides="1" tooltips="1" connect="1" arrows="1" fold="1" page="1" pageScale="1" pageWidth="827" pageHeight="1169" math="0" shadow="0">
      <root>
        <mxCell id="WIyWlLk6GJQsqaUBKTNV-0" />
        <mxCell id="WIyWlLk6GJQsqaUBKTNV-1" parent="WIyWlLk6GJQsqaUBKTNV-0" />
        <mxCell id="C9y109vxU3CH5QCrD-Q1-1" value="&lt;div&gt;[PreLogChk]&lt;/div&gt;&lt;div&gt;DL_SEL_CLEAR&lt;/div&gt;&lt;div&gt;DL_RTC_TEST&lt;/div&gt;&lt;div&gt;DL_SYSLOG_CHECK&lt;/div&gt;&lt;div&gt;DL_MCELOG_CHECK&lt;/div&gt;&lt;div&gt;DL_DMESG_CHECK&lt;/div&gt;&lt;div&gt;DL_SEL_CHECK&lt;/div&gt;&lt;div&gt;DL_VR_SDR_CHECK&lt;/div&gt;&lt;div&gt;DL_SDR_CHECK&lt;/div&gt;&lt;div&gt;&lt;br&gt;&lt;/div&gt;&lt;div&gt;[FruWrite]&lt;/div&gt;&lt;div&gt;DL_FRU_WRITE&lt;/div&gt;&lt;div&gt;DL_FRU_CHECK&lt;/div&gt;&lt;div&gt;&lt;br&gt;&lt;/div&gt;&lt;div&gt;&lt;br&gt;&lt;/div&gt;&lt;div&gt;[PreFwChk]&lt;/div&gt;&lt;div&gt;DL_BIC_RUNTIME_CHECK&lt;/div&gt;&lt;div&gt;DL_BIC_BootLoader_CHECK&lt;/div&gt;&lt;div&gt;DL_ME_CHECK&lt;/div&gt;&lt;div&gt;DL_CPLD_CHECK&lt;/div&gt;&lt;div&gt;DL_VR_CHECK&lt;/div&gt;&lt;div&gt;DL_BIOS_VERSION&lt;/div&gt;&lt;div&gt;DL_TPM_VER_CHECK&lt;/div&gt;&lt;div&gt;&lt;br&gt;&lt;/div&gt;&lt;div&gt;[PreCfgChk]&lt;/div&gt;&lt;div&gt;DL_ETHTOOL_CHECK&lt;/div&gt;&lt;div&gt;DL_PCIe_Device_Check&lt;/div&gt;&lt;div&gt;DL_NVME_CHECK&lt;/div&gt;&lt;div&gt;DL_CPU_CHECK&lt;/div&gt;&lt;div&gt;DL_ETH_MAC_CHECK&lt;/div&gt;&lt;div&gt;DL_MEMORY_CHECK&lt;/div&gt;&lt;div&gt;DL_BIT_FLIP&lt;/div&gt;&lt;div&gt;DL_TPM_TEST&lt;/div&gt;&lt;div&gt;DL_BIC_SELFTEST&lt;/div&gt;&lt;div&gt;DL_I2C_BUS_CHECK&lt;/div&gt;&lt;div&gt;DL_HPET&lt;/div&gt;&lt;div&gt;DL_PIC_CHECK&lt;/div&gt;&lt;div&gt;DL_DMI_TEST&lt;/div&gt;&lt;div&gt;DL_CPUINFO_CHECK&lt;/div&gt;&lt;div&gt;DL_SOL_CHECK&lt;/div&gt;&lt;div&gt;&lt;br&gt;&lt;/div&gt;&lt;div&gt;[ACCycle]&lt;/div&gt;&lt;div&gt;DL_SEL_CHECK&lt;/div&gt;&lt;div&gt;#DL_BIOS_SETTING_CHECK&lt;/div&gt;&lt;div&gt;DL_CMOS_CLEAR&lt;/div&gt;&lt;div&gt;DL_POWER_AC_CYCLE&lt;/div&gt;&lt;div&gt;@SET@SEL_WHITELIST_TYPE=AC_CYCLE&lt;/div&gt;&lt;div&gt;DL_SEL_CHECK&lt;/div&gt;&lt;div&gt;DL_SEL_CLEAR&lt;/div&gt;&lt;div&gt;DL_FRU_CHECK&lt;/div&gt;&lt;div&gt;&lt;br&gt;&lt;/div&gt;&lt;div&gt;[FwChk]&lt;/div&gt;&lt;div&gt;DL_BIC_RUNTIME_CHECK&lt;/div&gt;&lt;div&gt;DL_BIC_BootLoader_CHECK&lt;/div&gt;&lt;div&gt;DL_ME_CHECK&lt;/div&gt;&lt;div&gt;DL_CPLD_CHECK&lt;/div&gt;&lt;div&gt;DL_VR_CHECK&lt;/div&gt;&lt;div&gt;DL_BIOS_VERSION&lt;/div&gt;&lt;div&gt;DL_TPM_VER_CHECK&lt;/div&gt;&lt;div&gt;&lt;br&gt;&lt;/div&gt;&lt;div&gt;[PreCfgChk]&lt;/div&gt;&lt;div&gt;DL_ETHTOOL_CHECK&lt;/div&gt;&lt;div&gt;DL_PCIe_Device_Check&lt;/div&gt;&lt;div&gt;DL_NVME_CHECK&lt;/div&gt;&lt;div&gt;DL_CPU_CHECK&lt;/div&gt;&lt;div&gt;DL_ETH_MAC_CHECK&lt;/div&gt;&lt;div&gt;DL_MEMORY_CHECK&lt;/div&gt;&lt;div&gt;DL_BIT_FLIP&lt;/div&gt;&lt;div&gt;DL_TPM_TEST&lt;/div&gt;&lt;div&gt;DL_BIC_SELFTEST&lt;/div&gt;&lt;div&gt;DL_HPET&lt;/div&gt;&lt;div&gt;DL_PIC_CHECK&lt;/div&gt;&lt;div&gt;DL_DMI_TEST&lt;/div&gt;&lt;div&gt;DL_CPUINFO_CHECK&lt;/div&gt;&lt;div&gt;&lt;br&gt;&lt;/div&gt;&lt;div&gt;[ShortRunin]&lt;/div&gt;&lt;div&gt;DL_FIO_TEST&lt;/div&gt;&lt;div&gt;DL_STRESSAPP_TEST&lt;/div&gt;&lt;div&gt;&lt;br&gt;&lt;/div&gt;&lt;div&gt;[LogChk]&lt;/div&gt;&lt;div&gt;DL_SYSLOG_CHECK&lt;/div&gt;&lt;div&gt;DL_MCELOG_CHECK&lt;/div&gt;&lt;div&gt;DL_DMESG_CHECK&lt;/div&gt;&lt;div&gt;DL_SEL_CHECK&lt;/div&gt;&lt;div&gt;&lt;br&gt;&lt;/div&gt;&lt;div&gt;[LogClear]&lt;/div&gt;&lt;div&gt;DL_BIOS_SETTING_CHECK&lt;/div&gt;&lt;div&gt;DL_SEL_CLEAR&lt;/div&gt;&lt;div&gt;&lt;br&gt;&lt;/div&gt;" style="text;html=1;align=center;verticalAlign=middle;resizable=0;points=[];autosize=1;" parent="WIyWlLk6GJQsqaUBKTNV-1" vertex="1">
          <mxGeometry y="-1169" width="260" height="1250" as="geometry" />
        </mxCell>
        <mxCell id="C9y109vxU3CH5QCrD-Q1-4" value="DL_SEL_CLEAR" style="rounded=1;whiteSpace=wrap;html=1;" parent="WIyWlLk6GJQsqaUBKTNV-1" vertex="1">
          <mxGeometry x="260" y="-1180" width="140" height="30" as="geometry" />
        </mxCell>
        <mxCell id="5P_ujj33bgHj1NYLvx-D-0" value="&lt;div style=&quot;white-space: nowrap&quot;&gt;DL_SYSLOG_CHECK&lt;/div&gt;&lt;div&gt;&lt;br&gt;&lt;/div&gt;" style="rounded=1;whiteSpace=wrap;html=1;verticalAlign=top;horizontal=1;fontStyle=0;" vertex="1" parent="WIyWlLk6GJQsqaUBKTNV-1">
          <mxGeometry x="260" y="-1110" width="140" height="30" as="geometry" />
        </mxCell>
        <mxCell id="5P_ujj33bgHj1NYLvx-D-1" value="DL_SYSLOG_CHECK" style="text;html=1;align=center;verticalAlign=middle;resizable=0;points=[];autosize=1;" vertex="1" parent="WIyWlLk6GJQsqaUBKTNV-1">
          <mxGeometry x="255" y="-1060" width="140" height="20" as="geometry" />
        </mxCell>
        <mxCell id="5P_ujj33bgHj1NYLvx-D-2" value="&lt;div&gt;DL_DMESG_CHECK&lt;/div&gt;" style="text;html=1;align=center;verticalAlign=middle;resizable=0;points=[];autosize=1;" vertex="1" parent="WIyWlLk6GJQsqaUBKTNV-1">
          <mxGeometry x="265" y="-1029" width="130" height="20" as="geometry" />
        </mxCell>
      </root>
    </mxGraphModel>
  </diagram>
</mxfile>
